<svg t="1621337030513" class="icon" viewBox="0 0 1024 1024" version="1.1" xmlns="http://www.w3.org/2000/svg" p-id="1441"
    width="24" height="24">
    <path
        d="M486.400051 1023.997952c-129.94534 0-252.057096-50.585499-343.960912-142.438115S0.001024 667.544265 0.001024 537.650125c0-129.94534 50.585499-252.057096 142.438115-343.960912S356.454711 51.199898 486.400051 51.199898c129.94534 0 252.057096 50.585499 343.960912 142.489315S972.799078 407.704785 972.799078 537.650125s-50.585499 252.057096-142.438115 343.909712A483.224634 483.224634 0 0 1 486.400051 1023.997952z m0-921.598157C246.426131 102.399795 51.200922 297.625005 51.200922 537.598925S246.426131 972.798054 486.400051 972.798054s435.19913-195.22521 435.19913-435.199129S726.373971 102.399795 486.400051 102.399795z"
        p-id="1442"></path>
    <path
        d="M332.800358 409.599181C290.458043 409.599181 256.000512 375.14165 256.000512 332.799334S290.458043 255.999488 332.800358 255.999488 409.600205 290.457019 409.600205 332.799334 375.142674 409.599181 332.800358 409.599181z m0-102.399795a25.599949 25.599949 0 1 0 0 51.199897 25.599949 25.599949 0 0 0 0-51.199897zM639.999744 409.599181c-42.342315 0-76.799846-34.457531-76.799846-76.799847S597.657429 255.999488 639.999744 255.999488s76.799846 34.457531 76.799846 76.799846S682.342059 409.599181 639.999744 409.599181z m0-102.399795a25.599949 25.599949 0 1 0 0 51.199897 25.599949 25.599949 0 0 0 0-51.199897zM815.256993 626.328347a25.702349 25.702349 0 0 0-26.675146-11.468777 142.540515 142.540515 0 0 1-27.443145 2.867195c-44.646311 0-71.782256-25.753548-100.454199-53.043094-27.289545-25.907148-55.500689-52.735895-97.433406-52.735895-30.566339 0-58.009484 13.465573-76.799846 34.764731a102.194996 102.194996 0 0 0-76.799846-34.764731c-41.932716 0-70.14386 26.828746-97.433405 52.735895-28.723143 27.289545-55.807888 53.043094-100.4542 53.043094-8.652783 0-17.868764-0.972798-27.443145-2.867195a25.702349 25.702349 0 0 0-25.497549 40.499119c59.238282 79.001442 135.270129 95.590209 188.671623 95.590209 31.795136 0 57.087886-5.990388 69.375861-9.574381 27.187146-7.884784 52.121496-27.750344 69.631861-52.633494 17.561565 24.88315 42.495915 44.697511 69.631861 52.633494 12.287975 3.583993 37.580725 9.574381 69.375861 9.574381 53.350293 0 129.433341-16.588767 188.671623-95.590209a25.599949 25.599949 0 0 0 1.177597-29.030342zM402.432219 692.222616a201.061998 201.061998 0 0 1-55.09109 7.526385 178.175644 178.175644 0 0 1-105.932588-33.484734c47.871904-9.164782 79.667041-39.321521 105.983788-64.409471 25.19035-23.961552 41.727917-38.655923 62.156676-38.655922 28.211144 0 51.199898 22.988754 51.199898 51.199897 0 31.283137-28.364743 69.068662-58.367884 77.823845z m222.975554 7.526385c-25.446349 0-45.414309-4.710391-55.09109-7.526385-30.00314-8.703983-58.367883-46.540707-58.367883-77.823845 0-28.211144 22.988754-51.199898 51.199898-51.199897 20.479959 0 36.966326 14.694371 62.156675 38.655922 26.367947 25.03675 58.111884 55.24469 105.983788 64.358272a178.431643 178.431643 0 0 1-105.932588 33.484733z"
        p-id="1443"></path>
</svg>